<?xml version="1.0" encoding="UTF-8"?>
<svg id="Layer_1" xmlns="http://www.w3.org/2000/svg" version="1.1" viewBox="0 0 693.15 263.64">
  <!-- Generator: Adobe Illustrator 30.2.1, SVG Export Plug-In . SVG Version: 2.1.1 Build 1)  -->
  <defs>
    <style>
      .st0 {
        fill: #666263;
      }

      .st1 {
        fill: #07060a;
      }
    </style>
  </defs>
  <polygon class="st0" points="229.83 1.14 229.8 1.14 229.8 0 .34 0 .34 1.11 0 1.11 0 263.64 42.86 263.64 42.86 42.86 186.97 42.86 186.97 165.4 98.25 165.4 98.25 97.23 132.21 97.23 132.21 109.33 112.36 109.33 112.36 152.19 174.87 152.19 174.91 54.37 55.39 54.19 55.41 208.26 229.92 208.26 229.83 1.14"/>
  <polygon class="st0" points="463.32 1.14 463.35 1.14 463.35 0 692.81 0 692.81 1.11 693.15 1.11 693.15 263.64 650.29 263.64 650.29 42.86 506.18 42.86 506.18 165.4 594.9 165.4 594.9 97.23 560.94 97.23 560.94 109.33 580.79 109.33 580.79 152.19 518.28 152.19 518.24 54.37 637.76 54.19 637.74 208.26 463.23 208.26 463.32 1.14"/>
  <polygon class="st1" points="452.71 154.21 452.71 0 241.35 0 241.35 .35 241.32 .35 241.18 208.26 409.81 208.26 409.81 220.74 55.4 220.74 55.4 263.6 452.67 263.64 452.67 169.53 452.65 169.53 452.65 165.4 284.18 165.4 284.18 42.86 409.85 42.86 409.85 111.26 338.24 111.26 338.24 97.76 398.05 97.76 398.05 54.9 295.38 54.88 295.38 154.26 452.71 154.21"/>
  <rect class="st0" x="463.22" y="202.39" width="44.38" height="60.99"/>
</svg>